<svg id="visual" viewBox="0 0 350 350" width="350" height="350" xmlns="http://www.w3.org/2000/svg" xmlns:xlink="http://www.w3.org/1999/xlink" version="1.1"><g transform="translate(168.89319233166054 197.65316339035252)"><path d="M55.2 -89C78.8 -70.7 110.4 -67.7 131 -51.4C151.7 -35 161.5 -5.2 158 23.1C154.5 51.3 137.7 78.1 114.8 93.1C91.9 108.2 62.8 111.7 37.2 112.8C11.6 113.9 -10.5 112.6 -33.8 108.7C-57.1 104.8 -81.4 98.2 -100.9 83.3C-120.4 68.3 -134.9 44.9 -141.8 18.4C-148.8 -8.1 -148.1 -37.7 -138.7 -65.5C-129.4 -93.4 -111.5 -119.5 -86.9 -137.4C-62.4 -155.4 -31.2 -165.2 -7.7 -153.2C15.8 -141.2 31.5 -107.4 55.2 -89" fill="#ff4000"></path></g></svg>