<svg id="visual" viewBox="0 0 1200 300" width="1200" height="300" xmlns="http://www.w3.org/2000/svg" xmlns:xlink="http://www.w3.org/1999/xlink" version="1.1"><path d="M0 149L25 146C50 143 100 137 150 136.7C200 136.3 250 141.7 300 146.5C350 151.3 400 155.7 450 155.2C500 154.7 550 149.3 600 143.7C650 138 700 132 750 132.3C800 132.7 850 139.3 900 143.7C950 148 1000 150 1050 146.2C1100 142.3 1150 132.7 1175 127.8L1200 123L1200 0L1175 0C1150 0 1100 0 1050 0C1000 0 950 0 900 0C850 0 800 0 750 0C700 0 650 0 600 0C550 0 500 0 450 0C400 0 350 0 300 0C250 0 200 0 150 0C100 0 50 0 25 0L0 0Z" fill="#24d869"></path><path d="M0 95L25 88.7C50 82.3 100 69.7 150 63.7C200 57.7 250 58.3 300 57.3C350 56.3 400 53.7 450 53.2C500 52.7 550 54.3 600 60C650 65.7 700 75.3 750 81C800 86.7 850 88.3 900 81.7C950 75 1000 60 1050 52.3C1100 44.7 1150 44.3 1175 44.2L1200 44L1200 0L1175 0C1150 0 1100 0 1050 0C1000 0 950 0 900 0C850 0 800 0 750 0C700 0 650 0 600 0C550 0 500 0 450 0C400 0 350 0 300 0C250 0 200 0 150 0C100 0 50 0 25 0L0 0Z" fill="#22b355"></path></svg>