<svg id="visual" viewBox="0 0 900 150" width="900" height="150" xmlns="http://www.w3.org/2000/svg" xmlns:xlink="http://www.w3.org/1999/xlink" version="1.1"><path d="M0 59L25 64.3C50 69.7 100 80.3 150 77C200 73.7 250 56.3 300 47C350 37.7 400 36.3 450 44.7C500 53 550 71 600 75.5C650 80 700 71 750 67.3C800 63.7 850 65.3 875 66.2L900 67L900 151L875 151C850 151 800 151 750 151C700 151 650 151 600 151C550 151 500 151 450 151C400 151 350 151 300 151C250 151 200 151 150 151C100 151 50 151 25 151L0 151Z" fill="#ff4000" stroke-linecap="round" stroke-linejoin="miter"></path></svg>