<svg id="visual" viewBox="0 0 1200 300" width="1200" height="300" xmlns="http://www.w3.org/2000/svg" xmlns:xlink="http://www.w3.org/1999/xlink" version="1.1"><rect x="0" y="0" width="1200" height="300" fill="#ff4000"></rect><path d="M0 59L28.5 68.8C57 78.7 114 98.3 171.2 98.3C228.3 98.3 285.7 78.7 342.8 70.3C400 62 457 65 514.2 75C571.3 85 628.7 102 685.8 102.5C743 103 800 87 857.2 75.8C914.3 64.7 971.7 58.3 1028.8 60C1086 61.7 1143 71.3 1171.5 76.2L1200 81L1200 0L1171.5 0C1143 0 1086 0 1028.8 0C971.7 0 914.3 0 857.2 0C800 0 743 0 685.8 0C628.7 0 571.3 0 514.2 0C457 0 400 0 342.8 0C285.7 0 228.3 0 171.2 0C114 0 57 0 28.5 0L0 0Z" fill="#ffffff" stroke-linecap="round" stroke-linejoin="miter"></path></svg>